#format: frame checksums
#version: 1
#hash: MD5
#tb 0: 1001/30000
#stream#, dts,        pts, duration,     size, hash
0,          0,          0,        1,   152064, 20cf714300c5e28ffb77bf9c682129bc
0,          1,          1,        1,   152064, 2f271e4de29f87d6b90511fbafdf9fbb
0,          2,          2,        1,   152064, 2f271e4de29f87d6b90511fbafdf9fbb
0,          3,          3,        1,   152064, a88532a043f5f2c6bce729a8e20ee5af
0,          4,          4,        1,   152064, 8d7b5482ed8072a7c95d722783773436
0,          5,          5,        1,   152064, 04872d8619b163b5e0c20123ccddf7dc
0,          6,          6,        1,   152064, ed6d9677782aa6e87b6576541391557f
0,          7,          7,        1,   152064, 689f71108e9bf024cd9ccf48800dcdc7
0,          8,          8,        1,   152064, f7c555792884499bb62a8e739b201739
0,          9,          9,        1,   152064, 7fed82c38ce428a178c56f6131eff5ec
0,         10,         10,        1,   152064, fb638e587ade05baa027bb63edc7ec7c
0,         11,         11,        1,   152064, 319295f5aa44661a80570e844050156a
0,         12,         12,        1,   152064, de2d8635966a1cd57290eac449a5fb4b
0,         13,         13,        1,   152064, 9ac3d711a00aac6b17004bb6451e4cab
0,         14,         14,        1,   152064, d12eced084e72b5230493e2dc2de0f0a
0,         15,         15,        1,   152064, 197761d11407fed723a63b8e28cb8e19
0,         16,         16,        1,   152064, 28d8e807bc142b74f1eaf30dbbf1b7bd
0,         17,         17,        1,   152064, abe88f1f7490d13ba3def9511beaceec
0,         18,         18,        1,   152064, 7d297b9c989ebc0408fd41b14900242a
0,         19,         19,        1,   152064, d5e7adfa2b207d860feff5c894585fd1
0,         20,         20,        1,   152064, aea3e9de9de237f8379785f3467dc9c9
0,         21,         21,        1,   152064, 211967cd949c1d83a8cc4c8267aa6034
0,         22,         22,        1,   152064, 3f49bf8e0434114c15b867be2d53d283
0,         23,         23,        1,   152064, 8d5e629c0e941ca6f049ed2bb59d09a8
0,         24,         24,        1,   152064, d359620957877534bc94cd137dc652fe
0,         25,         25,        1,   152064, 83610fc1969fdfa267e7e462a83ea40c
0,         26,         26,        1,   152064, b2d20dcc3f77a238ce7210991eebe1a7
0,         27,         27,        1,   152064, a42ad37808f30e1d968882bf42e9c641
0,         28,         28,        1,   152064, 55084cded938266a2c3c658dcc162781
0,         29,         29,        1,   152064, e392a3a7d33e10e95fc9cdf0a2080eac
0,         30,         30,        1,   152064, 73977c4827463c17e63c0769bb90722f
0,         31,         31,        1,   152064, cb5dd87344af7d6fd4ed0e06cb90d9c2
0,         32,         32,        1,   152064, 533338860124e392cef2039468c22f75
0,         33,         33,        1,   152064, da30f077490042367502a6fe11a46e0f
0,         34,         34,        1,   152064, 860ab1bfbd3fe6a27bee5ef8c4e0b600
0,         35,         35,        1,   152064, 339ec3863eaed689d46289ffe47bc45d
0,         36,         36,        1,   152064, ffa6c990577093106796ed0dee56c483
0,         37,         37,        1,   152064, 3fcdc2bc064c79f35ea81a715ff089d0
0,         38,         38,        1,   152064, adaef9ec97e23a542db22bcd23c740bd
0,         39,         39,        1,   152064, ddcff4bd2c9579181182eb49add0ce3c
0,         40,         40,        1,   152064, b3b039c84cffb9272c8ddf9086748696
0,         41,         41,        1,   152064, 70939a961ec1e4697031b79e7ebb7919
0,         42,         42,        1,   152064, 6b3ff2e003749c6ffeb2d71edecf884c
0,         43,         43,        1,   152064, 5e4efc96971f81218c472482b5a79374
0,         44,         44,        1,   152064, 279132c87d81a5747824b06423bf6785
0,         45,         45,        1,   152064, 1da48caa08007523aab41a56e21dd99b
0,         46,         46,        1,   152064, 36ecffb2bfcb587d2556fddcbbd3448b
0,         47,         47,        1,   152064, 7823e3c86cd5a05c2959c7ef4d1cfa89
0,         48,         48,        1,   152064, b53f78afbad1a43f7aea58814eacd824
0,         49,         49,        1,   152064, b9b127b4bc54123bec19b2f4a3fa157c
